<svg width="1440" height="1058" viewBox="0 0 1440 1058" fill="none" xmlns="http://www.w3.org/2000/svg">
<path d="M1440 1057.35V599.985C1440 599.985 1386.15 625.978 1264.99 584.989C1143.82 544.001 998.726 535.14 795.291 569.993C591.856 604.847 482.93 597.213 392.909 569.993C178.006 505.012 0 616.34 0 616.34V967.272C0 967.272 529.321 836.646 747.366 899.161C965.412 961.676 1158.67 997.65 1247.6 993.304C1336.53 988.957 1440 1057.35 1440 1057.35Z" fill="url(#paint0_linear_47_3)"/>
<path d="M0 484.638V618.358C0 618.358 157.952 509.318 413.066 575.972C668.18 642.625 751.895 556.025 990.561 556.025C1229.23 556.025 1267.1 622.38 1440 606.796V477.097C1440 477.097 1290.92 432.184 1195.5 398C1052.04 346.605 860.543 399.856 744.913 420.291C520.194 460.005 379.183 421.281 270.561 407.723C161.938 394.165 0 484.638 0 484.638Z" fill="url(#paint1_linear_47_3)"/>
<path d="M0 0H1440V480C1420.99 480 1069.29 342.995 950.66 389C832.033 435.005 449.154 457 304.941 420.5C160.728 384 0 488 0 488V0Z" fill="url(#paint2_linear_47_3)"/>
<defs>
<linearGradient id="paint0_linear_47_3" x1="720" y1="548.353" x2="720" y2="1057.35" gradientUnits="userSpaceOnUse">
<stop stop-color="#403776"/>
<stop offset="1" stop-color="#201F47"/>
</linearGradient>
<linearGradient id="paint1_linear_47_3" x1="720" y1="376.276" x2="720" y2="618.358" gradientUnits="userSpaceOnUse">
<stop stop-color="#8E8FD0"/>
<stop offset="1" stop-color="#8973E2"/>
</linearGradient>
<linearGradient id="paint2_linear_47_3" x1="780.5" y1="7.72127e-06" x2="758" y2="459.5" gradientUnits="userSpaceOnUse">
<stop stop-color="#300F9A"/>
<stop offset="1" stop-color="#8D51CB"/>
</linearGradient>
</defs>
</svg>
